<?xml version="1.0" standalone="no"?>
<!DOCTYPE svg PUBLIC "-//W3C//DTD SVG 20010904//EN"
 "http://www.w3.org/TR/2001/REC-SVG-20010904/DTD/svg10.dtd">
<svg version="1.0" xmlns="http://www.w3.org/2000/svg"
 width="2048.000000pt" height="2048.000000pt" viewBox="0 0 2048.000000 2048.000000"
 preserveAspectRatio="xMidYMid meet">

<g transform="translate(0.000000,2048.000000) scale(0.100000,-0.100000)"
fill="#000000" stroke="none">
<path d="M0 10240 l0 -10240 10240 0 10240 0 0 10240 0 10240 -10240 0 -10240
0 0 -10240z m12723 4646 c17 -13 40 -51 194 -318 40 -71 107 -186 148 -258 41
-71 108 -187 148 -257 130 -226 262 -455 322 -558 32 -55 91 -157 132 -227 40
-71 107 -186 148 -258 41 -71 109 -190 151 -262 41 -73 84 -142 95 -153 19
-20 35 -20 863 -23 l844 -2 25 -25 c13 -14 27 -39 31 -56 11 -56 7 -4471 -4
-4511 -21 -72 38 -68 -885 -68 -643 0 -836 -3 -855 -13 -13 -7 -38 -37 -56
-67 -17 -30 -122 -212 -234 -405 -111 -192 -213 -368 -225 -390 -13 -22 -114
-197 -225 -390 -226 -390 -319 -551 -425 -735 -153 -266 -175 -303 -192 -316
-15 -11 -482 -13 -2694 -14 -2535 0 -2678 1 -2698 17 -15 14 -454 763 -664
1135 -13 24 -183 317 -377 653 -193 335 -362 628 -375 650 -12 22 -80 139
-150 260 -70 121 -160 276 -200 345 -39 69 -116 202 -170 295 -116 201 -182
315 -280 485 -108 187 -173 299 -269 464 -47 82 -86 150 -86 151 0 1 -22 40
-50 86 -34 57 -50 95 -50 118 0 27 75 164 341 625 188 325 352 609 364 631 13
22 114 198 225 390 112 193 236 407 277 478 40 70 106 184 147 255 40 70 107
186 148 257 41 72 166 288 278 480 112 193 235 406 275 475 39 69 107 186 150
260 43 74 103 178 133 230 30 52 65 113 78 135 13 22 44 76 69 120 25 44 50
87 55 95 5 8 32 56 61 105 28 50 61 98 71 108 19 16 162 17 2697 17 2212 -1
2679 -3 2694 -14z"/>
<path d="M8242 13326 c-13 -7 -54 -66 -91 -132 -80 -140 -171 -298 -346 -599
-70 -121 -138 -238 -150 -260 -13 -22 -80 -139 -150 -260 -71 -121 -161 -277
-202 -347 -40 -71 -106 -185 -146 -255 -41 -71 -108 -186 -149 -258 -405 -700
-549 -952 -554 -970 -4 -19 20 -65 173 -325 225 -383 301 -514 373 -640 46
-80 117 -203 158 -275 122 -211 216 -375 262 -455 23 -41 66 -115 95 -165 48
-82 446 -773 493 -855 126 -224 207 -358 224 -373 19 -16 55 -17 447 -17 l428
0 20 23 c12 12 54 78 94 147 39 69 104 181 144 250 39 69 100 174 135 234 57
97 62 112 53 136 -6 16 -147 264 -313 551 -166 288 -310 538 -320 554 -26 46
-285 495 -361 625 -36 63 -100 174 -141 245 -42 72 -98 169 -126 217 -27 47
-53 96 -57 107 -5 17 31 87 151 294 86 150 189 328 229 397 138 241 349 606
438 760 49 85 122 211 162 280 39 69 107 186 150 260 170 296 195 340 195 351
0 10 -55 109 -242 434 -42 72 -100 172 -129 224 -34 58 -63 97 -77 102 -13 5
-209 9 -435 9 -317 -1 -417 -4 -435 -14z"/>
<path d="M10940 13331 c-27 -7 -25 -4 -302 -486 -117 -204 -148 -266 -144
-286 3 -14 49 -102 102 -195 54 -93 130 -225 169 -294 40 -69 148 -255 240
-415 182 -315 397 -687 510 -885 40 -69 122 -211 184 -317 61 -106 111 -202
111 -214 0 -12 -95 -187 -211 -388 -117 -201 -244 -422 -284 -491 -39 -69
-140 -244 -225 -390 -84 -146 -177 -308 -207 -360 -31 -52 -63 -108 -73 -125
-9 -16 -51 -88 -92 -160 -41 -71 -107 -186 -147 -255 -39 -69 -74 -135 -77
-147 -5 -20 28 -90 106 -222 29 -49 103 -176 207 -356 58 -99 112 -186 121
-192 12 -10 117 -13 444 -13 l429 0 22 24 c12 13 55 82 95 152 40 71 83 147
96 169 54 93 242 420 311 540 13 22 46 81 75 130 29 50 112 194 185 320 73
127 185 322 250 435 65 113 151 261 190 330 176 306 196 341 377 648 26 45 70
119 96 165 27 45 58 98 70 117 12 19 22 48 22 64 0 18 -37 92 -99 200 -54 94
-108 187 -119 206 -99 173 -199 347 -372 645 -112 193 -236 406 -275 475 -40
69 -107 186 -150 260 -43 74 -102 176 -130 225 -29 50 -152 263 -275 475 -123
212 -248 428 -277 480 -86 151 -27 135 -511 137 -229 1 -428 -2 -442 -6z"/>
</g>
</svg>
