<?xml version="1.0" standalone="no"?><!DOCTYPE svg PUBLIC "-//W3C//DTD SVG 1.1//EN" "http://www.w3.org/Graphics/SVG/1.1/DTD/svg11.dtd"><svg t="1733990042335" class="icon" viewBox="0 0 1024 1024" version="1.1" xmlns="http://www.w3.org/2000/svg" p-id="9538" xmlns:xlink="http://www.w3.org/1999/xlink" width="512" height="512"><path d="M207.648 318.144l110.144-190.08L761.28 128l109.536 192 0.128 384-109.664 191.84L317.92 896l-111.36-192z" fill="#4D4D4D" p-id="9539"></path><path d="M206.56 703.936H406.4L296.64 510.496l89.28-192.32-178.24-0.032L96 512.064" fill="#EDEDED" p-id="9540"></path><path d="M467.04 703.936h146.08l129.184-188.288L615.392 320h-171.84l-103.552 189.056z" fill="#E0E0E0" p-id="9541"></path><path d="M96 512.032l110.56 192H406.4l-108.576-191.36z" fill="#ACACAC" p-id="9542"></path><path d="M342.08 512.064L467.072 704h146.08l127.168-191.84z" fill="#9E9E9E" p-id="9543"></path><path d="M391.584 512.16l-37.696 11.008-36.16-11.008 147.68-256.064 36.96 63.936" fill="#00B8E3" p-id="9544"></path><path d="M502.208 703.936l-36.768 64.224L367.36 662.4l-49.696-150.208v-0.096h73.92" fill="#33C6E9" p-id="9545"></path><path d="M317.728 512.16h-0.096v0.064l-36.928 64-37.088-63.712 37.6-65.248 110.4-191.136h73.824" fill="#008AAA" p-id="9546"></path><path d="M724.16 703.936h223.712L947.744 320H724.16z" fill="#D4D4D4" p-id="9547"></path><path d="M724.16 512.672V704h223.328V512.64z" fill="#919191" p-id="9548"></path><path d="M465.504 768.224h-73.92l-110.88-192 36.928-64z" fill="#00B8E3" p-id="9549"></path><path d="M761.056 512.16l-147.744 256C599.68 748.192 576.448 704 576.448 704l110.848-191.872h73.76z" fill="#008AAA" p-id="9550"></path><path d="M687.104 768.16h-73.792l147.776-256 36.896-63.936 37.024 64.32m-73.92-0.384h-73.792L576.416 320l36.704-63.84 89.76 114.112 58.176 141.888z" fill="#00B8E3" p-id="9551"></path><path d="M797.984 448.16v0.064l-36.928 63.936-147.904-256 74.016 0.064z" fill="#33C6E9" p-id="9552"></path></svg>