<svg t="1738892601871" viewBox="0 0 1024 1024" version="1.1"
    xmlns="http://www.w3.org/2000/svg" p-id="7004" width="512" height="512">
    <path
        d="M190.72 0h638.08C933.76 4.48 1017.6 87.68 1024 192v639.36c-5.76 103.04-90.88 186.88-193.28 192.64H193.28A206.08 206.08 0 0 1 0 828.8V194.56A206.144 206.144 0 0 1 190.72 0z m431.36 444.16c0.64-30.08-2.56-60.8 5.76-90.24 13.44-46.72 50.56-78.72 97.28-88.96 60.8-12.8 128.64 17.92 172.8-42.24 46.72-63.36 3.2-148.48-74.24-153.6-131.2-8.32-265.6 16.64-339.2 136.32-42.88 69.12-52.48 149.76-49.28 229.76-109.44-30.72-227.2 12.16-290.56 105.6-133.76 197.76 43.52 456.96 275.84 405.76 138.88-30.72 230.4-169.6 200.96-309.76h201.6c80-1.92 126.08-92.8 75.52-157.44-13.44-17.28-43.52-36.48-65.28-36.48H622.72z"
        p-id="7005" fill="#7b39ed"></path>
    <path
        d="M355.2 612.48c62.72-5.76 106.88 61.44 75.52 116.48s-108.8 51.84-136.96-2.56c-24.96-48.64 6.4-108.8 61.44-113.92z"
        p-id="7006" fill="#7b39ed"></path>
</svg>